<svg height="24" viewBox="0 0 41 24" width="41" xmlns="http://www.w3.org/2000/svg"><path d="m142.13302 52.4705882c0 2.164494-1.896199 3.9203073-4.233756 3.9203073-1.422149 0-2.419289-.6887026-3.677973-1.5590411-1.528402-1.0519744-3.424601-2.3612662-6.505925-2.3612662h-6.350634v8.8244755c0 2.7018334 2.378423 4.9041681 5.296281 4.9041681v1.2260421c-3.645279 0-6.620351-2.7472424-6.620351-6.1302102v-2.8456285c-3.073151.4465215-5.590519 2.4293796-6.628525 5.0706677h-.008173l-4.903964 12.4798971h6.759297l.931753-2.3764025c.97262-2.4747885 3.310176-3.3526952 5.173682-3.3526952 1.863507 0 4.201063.8779067 5.173682 3.3526952l.931754 2.3764025h6.759297l-2.288517-5.8274838c-.253371-.6432936-.37597-1.3168599-.384144-2.0131307 0-2.6564245 2.419289-3.5721719 6.375153-4.8436229 4.707806-1.5136322 10.568043-3.390536 10.568043-10.8451744zm-11.246424 7.8406146c-.588476 0-1.062526-.4389534-1.062526-.9838609 0-.5449076.47405-.9838609 1.062526-.9838609s1.062525.4389533 1.062525.9838609c-.008173.5449075-.482223.9838609-1.062525.9838609z" fill="#fff" transform="translate(-108 -52)"/></svg>