<svg height="18" viewBox="0 0 101 18" width="101" xmlns="http://www.w3.org/2000/svg"><g transform="translate(0 .504)"><path d="m0 16.98h7.78v-2.23h-5.18v-5.24h3.73v-2.23h-3.73v-4.63h4.85v-2.23h-7.45z"/><path d="m14.88 16.98h7.15v-2.23h-4.55v-14.32h-2.6z"/><path d="m28.75 16.98h7.78v-2.23h-5.18v-5.24h3.73v-2.23h-3.73v-4.63h4.85v-2.23h-7.45z"/><path d="m43.77 16.98h2.6v-7.46h3.87v-2.23h-3.87v-4.63h5.18v-2.23h-7.78z"/><path d="m58.78.43v12.45c0 2.75 1.56 4.33 4.29 4.33s4.29-1.58 4.29-4.33v-12.45h-2.6v12.57c0 1.32-.57 1.99-1.69 1.99s-1.69-.67-1.69-1.99v-12.57z"/><path d="m81.41 16.98h2.27v-16.55h-2.32v9.63l-3.82-9.63h-2.44v16.55h2.32v-10.52z"/><path d="m91.43 16.98h4.15c2.98 0 4.43-1.62 4.43-4.94v-6.67c0-3.32-1.45-4.94-4.43-4.94h-4.15zm3.75-2.09h-1.15v-12.37h1.15c1.64 0 2.22.65 2.22 2.5v7.37c0 1.85-.58 2.5-2.22 2.5z"/></g></svg>