<svg enable-background="new 0 0 150 48" viewBox="0 0 150 48" xmlns="http://www.w3.org/2000/svg" xmlns:xlink="http://www.w3.org/1999/xlink"><linearGradient id="a" gradientTransform="matrix(48 0 0 -48 14476.5 19273)" gradientUnits="userSpaceOnUse" x1="-300.5833" x2="-301.5833" y1="401.0208" y2="401.0208"><stop offset="0" stop-color="#f1f1f1"/><stop offset="1" stop-color="#fff"/></linearGradient><path d="m70.1 19.9c-1-1.2-2.4-2.1-3.7-2.1-2.1 0-3.7 1.7-3.7 4s1.6 4 3.7 4c1.2 0 2.6-.7 3.7-1.8l2.7 2.8c-1.7 1.8-4.2 3-6.6 3-4.7 0-8.2-3.4-8.2-8 0-4.5 3.6-7.9 8.4-7.9 2.4 0 4.9 1.1 6.4 2.8zm9.8-2.5c3.4 0 5.4 1.6 5.4 4.4v7.8h-4.3v-1.3c-.7 1-1.9 1.5-3.5 1.5-2.6 0-4.1-1.5-4.1-3.8s1.6-3.6 4.7-3.7h3c0-1-.7-1.6-2.1-1.6-1 0-2.3.3-3.6.9l-1.1-3c1.8-.7 3.7-1.2 5.6-1.2zm-1 9.6c.9 0 1.7-.5 2-1.2v-1.1h-2c-.9 0-1.4.4-1.4 1.1s.5 1.2 1.4 1.2zm16.7-9.5c3.4 0 5.6 2.5 5.6 6.3 0 3.7-2.2 6.1-5.5 6.1-1.4 0-2.6-.6-3.4-1.6v5.7h-4.5v-16.4h4.5v1.4c.8-1 2-1.5 3.3-1.5zm-1.1 8.8c1.3 0 2.2-1.1 2.2-2.7s-.9-2.7-2.2-2.7-2.2 1.1-2.2 2.7.9 2.7 2.2 2.7zm16-.3.8 3.1c-.8.5-2.1.8-3.4.8-2.6 0-4.3-1.5-4.3-4v-4.8h-1.7v-2.9h1.7v-3.4h4.5v3.4h3v2.9h-3v4.1c0 .8.4 1.2 1 1.2.3 0 .8-.2 1.4-.4zm10.1-8.4h4.5v12.1h-4.5v-1.8c-.8 1.3-2.1 2-3.7 2-2.5 0-4.3-1.8-4.3-4.6v-7.7h4.5v6.4c0 1.2.6 1.9 1.6 1.9 1.2 0 1.9-1 1.9-2.4zm11.7 1.9c.8-1.3 2.2-2.1 3.8-2.1v4c-2.3-.3-3.8.7-3.8 2.4v5.8h-4.5v-12h4.5zm10.8-2c4.2 0 6.5 2.8 6.3 7.3h-8.1c.4 1.2 1.2 1.8 2.4 1.8 1 0 1.9-.4 2.7-1.2l2.3 2.3c-1.3 1.4-3.1 2.2-5.4 2.2-4 0-6.5-2.4-6.5-6.1-.1-3.9 2.5-6.3 6.3-6.3zm1.8 5c0-1.2-.7-2-1.8-2s-1.8.8-2 2z" fill="#fff"/><g clip-rule="evenodd" fill-rule="evenodd"><path d="m48.5 24c0-8.8-7.1-15.9-15.9-15.9s-15.9 7.1-15.9 15.9c0-5.4 4.4-9.7 9.7-9.7 5.4 0 9.7 4.4 9.7 9.7s-4.4 9.7-9.7 9.7c-5.4 0-9.7-4.4-9.7-9.7 0 8.8 7.1 15.9 15.9 15.9s15.9-7.1 15.9-15.9c0 13.3-10.7 24-24 24s-24-10.7-24-24 10.7-24 24-24 24 10.7 24 24zm-22 9.7c-5.4 0-9.7-4.4-9.7-9.7s4.4-9.7 9.7-9.7 9.7 4.4 9.7 9.7-4.3 9.7-9.7 9.7z" fill="url(#a)"/><path d="m16.7 24c0 5.4 4.4 9.8 9.7 9.8 5.4 0 9.7-4.4 9.7-9.8s-4.4-9.8-9.7-9.8-9.7 4.4-9.7 9.8c0-8.8 7.1-15.9 15.9-15.9s15.9 7.1 15.9 15.9-7.1 15.9-15.9 15.9-15.9-7.1-15.9-15.9z" fill="#fff" opacity=".5007"/></g></svg>