<svg viewBox="0 0 158.6 78.5" xmlns="http://www.w3.org/2000/svg"><g fill="#fff"><path d="m113.28 23.53h-1.42-1-.12c-3.34 0-7.29.18-11.92 0h-.74c-1 0-3.12-.19-3.15-.19l-1.48-.13c-2-.17-4.06-.43-6.25-.8l-1.62-.28-.88-.13c-.56-.11-2.92-.63-3.45-.76s-.92-.22-1.39-.34c-.84-.21-1.69-.45-2.56-.7l-1.2-.36c-.81-.23-1.63-.5-2.47-.78l-1.5-.51c-.73-.25-1.46-.52-2.21-.8l16.49-12z"/><path d="m47.11 74.42q-4 0-5.82-2.4t-1.86-7.57v-5q0-5.28 1.86-7.65t5.94-2.37a7.78 7.78 0 0 1 4.83 1.35 4.41 4.41 0 0 1 1.94 3.29.25.25 0 0 0 .24.2h4.16a.25.25 0 0 0 .25-.25 7.79 7.79 0 0 0 -2.19-5.35q-2.94-3.3-9.48-3.3-6.06 0-9.18 3.54t-3.11 10.56v5.94q0 6.5 3.12 9.79t9.19 3.3q7.32 0 10.09-4.14a9.87 9.87 0 0 0 1.29-2.55 11.13 11.13 0 0 0 .35-2.81.25.25 0 0 0 -.24-.25h-4.24a.25.25 0 0 0 -.24.2c-.65 3.34-2.89 5.47-6.9 5.47z"/><path d="m129.89 49.64a.24.24 0 0 0 .24-.24v-3.79a.23.23 0 0 0 -.24-.24h-7v-7.75a.24.24 0 0 0 -.24-.24l-4.26 1.3a.24.24 0 0 0 -.24.24v6.45h-4.65a.24.24 0 0 0 -.24.24v3.79a.24.24 0 0 0 .24.24h4.65v20q0 4.14 1.86 6.06t5.99 1.96h3.9a.24.24 0 0 0 .24-.24v-3.72a.24.24 0 0 0 -.24-.24h-3.48a3.16 3.16 0 0 1 -2.67-1 5.85 5.85 0 0 1 -.81-3.51v-19.31z"/><path d="m87.21 54a5.16 5.16 0 0 0 -.21-1.21 10.75 10.75 0 0 0 -2.07-3.88q-3.12-3.54-9.18-3.54-6.54 0-9.49 3.3a7.59 7.59 0 0 0 -2 5.32.25.25 0 0 0 .25.25h4.16a.25.25 0 0 0 .24-.21 4.24 4.24 0 0 1 1.8-3.29 7.84 7.84 0 0 1 4.84-1.35q4.08 0 5.94 2.37a5 5 0 0 1 1 2.59v1 3.54q-1.86-.24-3.72-.36t-3.06-.12q-6.55 0-9.61 2.46t-3.06 7.81q0 5 2.91 7.29c1.71 1.32 5.3 2 8.92 2.2a18.24 18.24 0 0 0 2.86-.1 37.07 37.07 0 0 0 8.95-1.91.77.77 0 0 0 .55-.71v-20.18c.03-.46.01-.89-.02-1.27zm-16.59 19.33a3.72 3.72 0 0 1 -2.29-2.18 6.92 6.92 0 0 1 -.4-2.49q0-3.37 1.77-4.81t6.4-1.44c.67 0 4.66.34 6.15.51a.3.3 0 0 1 .27.3v9.4a.32.32 0 0 1 -.21.3 18.25 18.25 0 0 1 -11.69.41z"/><path d="m158.13 54a5.16 5.16 0 0 0 -.23-1.17 10.75 10.75 0 0 0 -2.07-3.88q-3.12-3.54-9.18-3.54-6.56 0-9.49 3.3a7.59 7.59 0 0 0 -2 5.32.25.25 0 0 0 .25.25h4.16a.25.25 0 0 0 .24-.21 4.24 4.24 0 0 1 1.8-3.29 7.82 7.82 0 0 1 4.84-1.35q4.08 0 5.94 2.37a4.91 4.91 0 0 1 1 2.59c0 .33.05.67.05 1v3.54q-1.86-.24-3.72-.36c-1.24-.08-2.27-.12-3.07-.12q-6.54 0-9.6 2.46t-3.05 7.81q0 5 2.91 7.29c1.71 1.32 5.3 2 8.92 2.2a18.24 18.24 0 0 0 2.86-.1 37.07 37.07 0 0 0 8.95-1.91.77.77 0 0 0 .55-.71v-20.22c-.01-.46-.03-.89-.06-1.27zm-16.59 19.33a3.72 3.72 0 0 1 -2.29-2.18 6.92 6.92 0 0 1 -.4-2.49q0-3.37 1.77-4.81t6.4-1.44c.67 0 4.66.34 6.15.51a.31.31 0 0 1 .27.3v9.4a.34.34 0 0 1 -.21.3 18.25 18.25 0 0 1 -11.69.41z"/><path d="m109.22 50a.23.23 0 0 0 .22-.23v-.18-3.99c0-.8-5.49.43-6 .59a8.2 8.2 0 0 0 -5.44 4.16v-3.79a.26.26 0 0 0 -.26-.26h-4.13a.26.26 0 0 0 -.26.26v30.86a.27.27 0 0 0 .26.27h4.26a.27.27 0 0 0 .26-.27v-17.29a13.62 13.62 0 0 1 1.2-5.9 7 7 0 0 1 6-4.13 21.77 21.77 0 0 1 2.79-.17z"/><path d="m110.91 25.42c-63.8 19.58-110.91 0-110.91 0l35.1-25.42c13.32 9.77 24.9 15.83 34.82 19.57.75.28 1.48.55 2.21.8l1.5.51c.84.28 1.66.55 2.47.78l1.2.36c.87.25 1.72.49 2.56.7.47.12.93.24 1.39.34s4.07.88 4.38.94l1.62.28c2.19.37 4.27.63 6.25.8l1.48.13s2.15.15 3.15.19h.74c4.63.17 8.58 0 11.92 0z"/></g></svg>