<svg enable-background="new 0 0 132 52" viewBox="0 0 132 52" xmlns="http://www.w3.org/2000/svg"><g fill="#fff"><path d="m89.8 5.8v34h10.2v-5.2h-3.4v-34h-6.8z"/><path d="m.9 34.6h3.5v-16.4h-3.5v-4.5l3.5-.6v-4.6c0-5.5 1.2-8 8.3-8 1.5 0 3.3.2 4.9.5l-.9 5.6c-1.1-.2-1.6-.2-2.3-.2-2.5 0-3.1.2-3.1 2.7v4h5.2v5.1h-5.2v16.4h3.4v5.2h-13.8z"/><path d="m86.3 33c-1.1.2-2 .2-2.7.2-2.8.1-2.6-.9-2.6-3.5v-11.5h5.4v-5.1h-5.4v-12.5h-6.9v30.5c0 6 1.5 8.7 7.9 8.7 1.5 0 3.6-.4 5.2-.7z"/><path d="m128.9 34.7c1.4 0 2.6 1.1 2.6 2.6 0 1.4-1.2 2.6-2.6 2.6s-2.6-1.1-2.6-2.6 1.1-2.6 2.6-2.6zm0 4.7c1.2 0 2.2-1 2.2-2.2s-1-2.2-2.2-2.2-2.2 1-2.2 2.2 1 2.2 2.2 2.2zm.5-.9-.5-.8h-.4v.8h-.6v-2.5h1.1c.6 0 1 .3 1 .9 0 .4-.2.7-.5.8l.6.9zm-.9-1.3h.5c.3 0 .4-.1.4-.4s-.2-.4-.4-.4h-.5z"/><path d="m65.6 18.2v-.9c-2.1-.4-4.1-.4-5.3-.4-3.2 0-3.6 1.7-3.6 2.6 0 1.3.4 2 3.9 2.8 5.1 1.1 10.1 2.3 10.1 8.6 0 5.9-3.1 9-9.5 9-4.3 0-8.5-.9-11.7-1.7v-5.2h5.2v.9c2.2.4 4.6.4 5.8.4 3.4 0 4-1.8 4-2.8 0-1.4-1-2-4.2-2.6-6-1-10.8-3.1-10.8-9.2 0-5.8 3.9-8 10.3-8 4.4 0 7.7.7 10.9 1.5v5.1h-5.1z"/><path d="m34.1 22.7-.5-.5-2.6 2.3c-.1 0-.3-.1-.4-.1-.7 0-1.3.6-1.3 1.3s.6 1.3 1.3 1.3 1.3-.6 1.3-1.3c0-.1 0-.3-.1-.4z"/><path d="m44.6 33v-21.3h-6.9v2c-1.4-.8-3-1.5-4.7-1.8v-2.4h.8v-1.7h-6.8v1.7h.8v2.4c-6.6 1.2-11.5 6.9-11.5 13.9 0 7.8 6.3 14.1 14.1 14.1 2.7 0 5.1-.7 7.3-2l1.2 2h7.2v-6.9zm-13.7 0v-.8h-.8v.8c-3.7-.2-6.6-3.2-6.8-6.9h.8v-.8h-.8c.2-3.7 3.1-6.6 6.8-6.8v.8h.8v-.8c3.6.2 6.5 3 6.8 6.6v.2h-.8v.8h.8v.2c-.3 3.6-3.2 6.5-6.8 6.7z"/><path d="m117.4 13.1h14.1v5.1h-3.4l-8.7 21.3c-2.5 6-6.6 11.6-12.8 11.6-1.5 0-3.6-.2-5-.5l.6-6.2c.9.2 2.1.3 2.7.3 2.9 0 6.1-1.8 7.2-4.9l-8.8-21.6h-3.3v-5.1h14.1v5.1h-3.4l5 12.2 5-12.2h-3.4z"/></g></svg>