<svg height="160" viewBox="0 0 600 160" width="600" xmlns="http://www.w3.org/2000/svg" xmlns:xlink="http://www.w3.org/1999/xlink"><mask id="a" fill="#fff"><path d="m599.533 159.548853v-159.54670633h-599.5319v159.54670633z" fill="#fff" fill-rule="evenodd"/></mask><path d="m559.6811.52378667h-44.968v159.02506633h84.821v-36.4504h-39.853zm-178.618 159.02506633h93.676v-36.4504h-48.719v-26.4039997h48.719v-34.8404h-48.719v-26.4469333h48.719v-34.88333333h-93.676zm-89.419-47.924333c-6.93 7.6314-16.918 11.473933-29.733 11.473933h-3.586v-86.6501997h3.586c26.18 0 40.029 15.0481334 40.029 43.4485334 0 13.5669333-3.443 24.2036663-10.296 31.7277333zm29.799-91.9739333c-7.832-6.4614667-17.127-11.3558667-27.687-14.62953337-10.648-3.32733333-22.11-5.0232-33.99-5.0232h-42.922v159.55099967h42.922c14.861 0 27.896-2.135933 38.874-6.354133 10.857-4.175267 19.987-9.971267 27.06-17.237733 7.095-7.2772 12.43-15.863867 15.939-25.641934 3.465-9.863933 5.28-20.554333 5.28-31.727733 0-13.1483333-2.343-24.7618-6.919-34.5506-4.565-9.7673333-10.835-17.9783333-18.557-24.3861333zm-191.004 139.8982663h45.507v-159.02506633h-45.507zm-130.438 0h44.957v-62.8543997h30.844l17.886-34.8404h-48.73v-26.4469333h48.73v-34.88333333h-93.687z" fill="#fff" fill-rule="evenodd" mask="url(#a)"/></svg>