<svg id="Layer_1" data-name="Layer 1" xmlns="http://www.w3.org/2000/svg" viewBox="0 0 694.59 378.23"><defs><style>.cls-1{fill:#00e7ae;}.cls-2{fill:#fff;}.cls-3{fill:#fff;}</style></defs><title>GP_V1</title><g id="Layer_1-2" data-name="Layer 1-2"><path class="cls-1" d="M683.57,221.9a10,10,0,0,0-7.55-9.4q-5.07-1.27-10.13-2.5l-10.15-2.41q-5.07-1.17-10.16-2.3t-10.16-2.21a10,10,0,0,0-9.44,3L609,224.6l-6-10.94a51.92,51.92,0,0,0-6.42-9.13,45,45,0,0,0-7.64-6.88A43.51,43.51,0,0,0,580.5,193a46.44,46.44,0,0,0-8.68-2.63h-.15l-6.38-1.15-6.37-1.12c-2.13-.37-4.25-.73-6.38-1.08l-6.39-1H546L536,184.54c-.65-.1-16.22-2.31-24.25-3.32s-16.26-2-24.33-2.79-16.3-1.6-24.37-2.26-16.24-1.25-24.31-1.73H437a26.41,26.41,0,0,0-10.44,1.86,23.81,23.81,0,0,0-6,3.43,10,10,0,0,0-9-7c-5.08-.28-10.23-.52-15.29-.72s-10.2-.56-15.28-.7-10.25-.24-15.31-.31c-8.1-.1-16.31-.1-24.48-.1-3,0-6.11.06-9.16.11s-6.11.11-9.15.18-6.1.16-9.12.26a28.57,28.57,0,0,0-10.43,2.28,27.08,27.08,0,0,0-8.51,5.82,26.62,26.62,0,0,0-5.63,8.58,27.18,27.18,0,0,0-2,10.3v1.06a54.08,54.08,0,0,0-6.36-7.41,56.27,56.27,0,0,0-19.2-12.1,68.47,68.47,0,0,0-26.17-4.2l-2.14.12-2.13.1c-.72.06-1.43.12-2.15.2-4.22.44-8.47.91-12.62,1.39s-8.45,1-12.62,1.53-8.44,1.1-12.61,1.68-8.45,1.19-12.61,1.81a30.18,30.18,0,0,0-23.5,18.64,29.53,29.53,0,0,0-1.76,6.65,64.94,64.94,0,0,0-18.7-10.2,69.66,69.66,0,0,0-11.26-2.88A74.37,74.37,0,0,0,107,193.9c-1.49.09-3,.22-4.49.39s-3,.4-4.54.65-3.06.57-4.57.92A97.38,97.38,0,0,0,61,210.11a118.33,118.33,0,0,0-26.24,24.14A119.87,119.87,0,0,0,16.66,264.9,99.47,99.47,0,0,0,9.23,299a78.13,78.13,0,0,0,1.23,16.72,66.46,66.46,0,0,0,4.63,15,60,60,0,0,0,7.84,12.89A57.1,57.1,0,0,0,33.6,353.93a61.29,61.29,0,0,0,5.32,3.53l.4.24,52,30L89.45,516.1a10,10,0,0,0,7.44,9.8l54.61,14.48a10.32,10.32,0,0,0,5,0c2.67-.7,5.33-1.36,8-2s5.34-1.3,8-1.93,5.35-1.25,8-1.86,5.36-1.19,8-1.77a10,10,0,0,0,7.89-9.67l.17-16.62,31,16.72a10,10,0,0,0,6.09,1.1c2.81-.38,5.64-.75,8.47-1.1s5.67-.69,8.5-1,5.67-.64,8.5-.94,5.67-.58,8.5-.85a10,10,0,0,0,7.89-5.26l5.64-10.62c2.45-.25,4.9-.49,7.32-.71,4.15-.39,8.39-.75,12.58-1.08s8.43-.63,12.59-.9l2.76-.16,4.08,8.71A10,10,0,0,0,330,516.2c2.58-.11,5.17-.22,7.75-.31s5.18-.17,7.78-.23l7.79-.17c2.6-.06,5.07-.07,7.61-.09l8,.18c2.7.07,5.43.15,8.14.25l8.14.32c2.71.12,5.43.27,8.14.42a10,10,0,0,0,10.06-6.86l5.59-17,2.12,3.74,5,8.85q2.49,4.43,5,8.88a10,10,0,0,0,7.77,5.06c2.93.27,5.86.57,8.79.88s5.85.63,8.78,1,5.85.7,8.78,1.07c1.44.18,3.28.48,5,.77s3.29.53,4.7.73h.42c1.43.22,2.92.49,4.41.76,1.33.24,2.66.48,3.94.69,2.7.44,5.41.89,8.11,1.36s5.41,1,8.12,1.44,5.41,1,8.11,1.52a10,10,0,0,0,6.43-.91L523.25,519l1.65,2.61,7.55,12a10,10,0,0,0,6.09,4.39q5,1.2,9.92,2.5l9.92,2.62q4.95,1.35,9.9,2.75t9.87,2.85a9.79,9.79,0,0,0,2.85.43,10.81,10.81,0,0,0,2.19-.25l54.67-12.32a10,10,0,0,0,7.56-12,10.47,10.47,0,0,0-1.24-3c-5-8.18-10.26-16.62-15.51-25-5.06-8.14-10.29-16.46-15.5-24.74s-10.38-16.44-15.49-24.46c-3.66-5.74-7.32-11.47-10.94-17.11q4.29-4,8.53-7.85c4.72-4.31,14.12-12.83,14.12-12.83l14-12.6,56.82-13.33a10,10,0,0,0,7.72-10Z" transform="translate(-9.18 -170.9)"/><path class="cls-2" d="M436.46,184.25H438q12.11.74,24.19,1.72t24.16,2.25q12.08,1.26,24.13,2.76t24.08,3.3c0,3.05.1,6.11.16,9.18l.15,9.19c0,3.07.11,6.14.16,9.21l.15,9.23q-9.08-1.53-18.13-2.9t-18.16-2.61q-9.09-1.23-18.18-2.31t-18.2-2v4.86c0,1.62,0,3.24.05,4.87s0,3.24,0,4.87,0,3.25.05,4.87c5,.52,10,1.06,15.07,1.65s10,1.19,15.06,1.85l15,2c5.05.67,10,1.47,15,2.26,0,2.79.09,5.58.13,8.38s.09,5.59.13,8.39.09,5.6.14,8.4.09,5.6.13,8.41q-7.53-1.18-15.08-2.27c-5-.71-10.07-1.41-15.1-2.07s-10.07-1.28-15.1-1.86S468,274.76,463,274.22c0,1.64,0,3.27,0,4.91s0,3.27.05,4.91,0,3.28,0,4.92l.06,4.92q9.15.94,18.31,2t18.3,2.34q9.15,1.25,18.28,2.64t18.36,3c0,3.09.11,6.18.15,9.28s.1,6.2.16,9.28l.15,9.31c.06,3.12.12,6.23.16,9.33q-12.19-2-24.41-3.78t-24.41-3.22q-12.24-1.5-24.49-2.72t-24.51-2.17a18.14,18.14,0,0,1-6.84-2,18.86,18.86,0,0,1-5.44-4.28,19.91,19.91,0,0,1-3.59-5.89,19,19,0,0,1-1.32-6.86q-.12-14-.19-27.89t-.2-27.75q-.07-13.83-.17-27.62t-.25-27.46a16.09,16.09,0,0,1,1.09-6.09,14.06,14.06,0,0,1,3.14-4.81,14.24,14.24,0,0,1,4.81-3.17,16.73,16.73,0,0,1,6.15-1.14" transform="translate(-9.18 -170.9)"/><path class="cls-2" d="M263.08,277.47q3.63,6.15,7.29,12.31l7.3,12.38L285,314.61l7.33,12.53c-3.74.18-7.47.39-11.21.61s-7.49.46-11.22.71-7.47.54-11.21.83-7.47.61-11.22.95q-3.08-5.19-6.16-10.34l-6.16-10.28L229,299.4l-6.13-10.16-5,.57-5,.58-5,.61-5,.64c0,3.62-.09,7.23-.14,10.85s-.1,7.25-.14,10.87l-.15,10.9c0,3.63-.08,7.27-.14,10.91-3.44.45-6.9.91-10.36,1.39s-6.91,1-10.35,1.49-6.89,1-10.35,1.58l-10.34,1.68q.28-16.35.55-32.67t.54-32.49q.27-16.17.54-32.3t.54-32.1a19.2,19.2,0,0,1,1.35-6.85,19.59,19.59,0,0,1,3.58-5.83,20.26,20.26,0,0,1,5.37-4.32,19.85,19.85,0,0,1,6.74-2.28c4.16-.63,8.32-1.22,12.48-1.8s8.32-1.14,12.5-1.66,8.33-1,12.5-1.52,8.35-.94,12.51-1.37l1.89-.18,1.87-.12c.61,0,1.23-.06,1.84-.07h1.82a57.25,57.25,0,0,1,20.53,3.58,45.77,45.77,0,0,1,15.79,9.93A43.64,43.64,0,0,1,284,214.36a50.13,50.13,0,0,1,3.51,19.07,52.07,52.07,0,0,1-14,35.32,54.9,54.9,0,0,1-10.4,8.71M225.7,256.53a26.77,26.77,0,0,0,8.36-2.19,20.19,20.19,0,0,0,6.26-4.33,18.46,18.46,0,0,0,3.91-6.11,20.57,20.57,0,0,0,1.41-7.48,18.18,18.18,0,0,0-1.07-6.5,14,14,0,0,0-3.2-5,14.78,14.78,0,0,0-5.22-3.31,20.8,20.8,0,0,0-7.08-1.18h-1.45l-.76.05-.76.07-5.59.62-5.59.65-5.58.67-5.59.71-.12,9c0,3-.07,6-.11,9l-.12,9-.12,9,5.61-.71,5.6-.68,5.61-.65,5.6-.63" transform="translate(-9.18 -170.9)"/><path class="cls-2" d="M111.44,203.81a62.54,62.54,0,0,1,10.31.85,58.13,58.13,0,0,1,9.61,2.45A54.87,54.87,0,0,1,148,216.4q-3.56,4-7.08,8.1l-7.1,8.17q-3.6,4.1-7.1,8.23c-2.34,2.77-4.71,5.52-7.11,8.28a24.82,24.82,0,0,0-3.67-2.43,27.29,27.29,0,0,0-4.11-1.81,29.27,29.27,0,0,0-4.5-1.11,30,30,0,0,0-4.82-.37c-.63,0-1.26,0-1.9,0s-1.28.09-1.93.17-1.3.17-2,.29-1.32.24-2,.4a42.57,42.57,0,0,0-13.86,6,51.78,51.78,0,0,0-19.27,23.44,41.31,41.31,0,0,0-3.14,14.45,32.15,32.15,0,0,0,.54,6.93,26,26,0,0,0,1.9,6.1A23.26,23.26,0,0,0,64,306.46a22.83,22.83,0,0,0,4.25,4.14,23.4,23.4,0,0,0,3.52,2.3,25.89,25.89,0,0,0,4,1.65,26.22,26.22,0,0,0,4.38,1,29.48,29.48,0,0,0,4.7.35c.66,0,1.33,0,2,0a16.13,16.13,0,0,0,2.06-.2c.68-.08,1.39-.17,2.1-.3s1.41-.27,2.13-.42a44.91,44.91,0,0,0,4.56-1.33,45.38,45.38,0,0,0,4.4-1.83,46.08,46.08,0,0,0,4.21-2.26c1.37-.81,2.69-1.72,4-2.67q.06-4.11.17-8.22l.18-8.2q.08-4.11.17-8.2L111,274q5.06-1.14,10.24-2.14t10.24-2q5.1-1,10.24-1.94L152,266.11l-.22,12.25q-.09,6.15-.22,12.29t-.29,12.25L151,315.24a102.84,102.84,0,0,1-8.68,10.19,108.56,108.56,0,0,1-21.07,16.86,101.55,101.55,0,0,1-12,6.31c-1.39.61-2.78,1.19-4.19,1.74s-2.82,1.07-4.25,1.55-2.87.94-4.32,1.35-2.91.8-4.38,1.14-3.14.67-4.69.94-3.08.5-4.6.68-3,.31-4.5.4-3,.13-4.41.13a69.14,69.14,0,0,1-9.74-.69,61.2,61.2,0,0,1-9.05-2,54.55,54.55,0,0,1-8.26-3.31,49.69,49.69,0,0,1-7.27-4.63,47,47,0,0,1-8.82-8.5,49.61,49.61,0,0,1-6.55-10.71,55.46,55.46,0,0,1-3.9-12.79,67.82,67.82,0,0,1-1.1-14.58,90.07,90.07,0,0,1,6.68-30.7,110.9,110.9,0,0,1,16.6-28.09,108.67,108.67,0,0,1,24-22.1,87.68,87.68,0,0,1,29.1-12.78c1.33-.31,2.66-.58,4-.81s2.66-.41,4-.57,2.63-.27,3.93-.34,2.58-.12,3.85-.12" transform="translate(-9.18 -170.9)"/><path class="cls-2" d="M544.58,195.81l6.32,1,6.33,1.09,6.32,1.11,6.32,1.15a37,37,0,0,1,6.8,2.05,34.59,34.59,0,0,1,6.47,3.58,35.54,35.54,0,0,1,5.94,5.35,42.18,42.18,0,0,1,5.15,7.37q5.12,9.35,10.27,18.73l10.29,18.89q5.16,9.48,10.31,19t10.34,19.19q-.21-10.21-.51-20.42t-.54-20.41q-.27-10.19-.53-20.34t-.52-20.27l10.07,2.18q5.07,1.11,10.07,2.28t10.06,2.39q5.07,1.23,10,2.47.56,18.72,1.11,37.54t1.11,37.77q.57,19,1.12,38T678,373.82L671.69,372c-2.11-.61-4.23-1.22-6.34-1.81L659,368.43l-6.34-1.73a47.11,47.11,0,0,1-6.88-2.49,38.75,38.75,0,0,1-6.57-3.81,36.43,36.43,0,0,1-6.06-5.44,40.75,40.75,0,0,1-5.25-7.39q-5.16-9.52-10.32-19t-10.31-18.83L597,291.06q-5.13-9.31-10.26-18.53l.42,19.45.42,19.52q.21,9.76.42,19.59l.42,19.65q-5.14-1.11-10.29-2.2t-10.31-2.08l-10.31-2q-5.16-1-10.28-1.89-.35-18.57-.66-37l-.66-36.81q-.33-18.33-.65-36.57t-.65-36.33" transform="translate(-9.18 -170.9)"/><path class="cls-2" d="M350.4,180.9q7.59,0,15.18.1t15.17.31q7.58.19,15.16.51t15.16.71c0,2.91,0,5.83.05,8.74s0,5.83.05,8.75,0,5.84,0,8.76,0,5.85.05,8.78q-8-.45-15.91-.79t-15.91-.56q-8-.22-15.92-.34t-15.92-.12h-9.33V235.2h9.41q6.39,0,12.77.07t12.76.21q6.39.15,12.77.37t12.76.5v33.51q-6.39-.27-12.8-.51t-12.8-.36q-6.4-.15-12.79-.22t-12.81-.07h-9.43v19.63h9.35q8,0,16,.11t16,.35q8,.22,16,.57t16,.8l.06,9.34c0,3.11,0,6.23.05,9.35s0,6.25,0,9.39l.06,9.38q-8-.45-16.06-.8t-16.07-.58q-8-.24-16.08-.35t-16.07-.11H338.9l-8.48.09-8.49.16c-2.82.07-5.66.14-8.48.23h-.53a16.2,16.2,0,0,1-6.65-1.37,15.83,15.83,0,0,1-5.22-3.7,17,17,0,0,1-3.41-5.45,18.11,18.11,0,0,1-1.2-6.6q.06-14,.12-27.88t.13-27.75q.06-13.83.13-27.61t.41-27.42a17.24,17.24,0,0,1,1.29-6.53,16.74,16.74,0,0,1,3.53-5.34,17.26,17.26,0,0,1,5.36-3.66,18.47,18.47,0,0,1,6.75-1.47c3-.09,6-.18,9.07-.25s6-.14,9.07-.18,6.05-.09,9.08-.11,6.05,0,9.07,0" transform="translate(-9.18 -170.9)"/><path class="cls-3" d="M460.83,439.64l7.42,13.6q3.72,6.81,7.43,13.66l7.44,13.75q3.72,6.9,7.44,13.83-5.56-.76-11.14-1.47t-11.19-1.36l-11.16-1.23q-5.58-.59-11.17-1.12l-6.29-11.15-6.29-11.1L427,456l-6.27-11-5-.24-5-.21-5-.19-5-.17V486q-5.16-.3-10.35-.52T380.08,485q-5.18-.18-10.34-.32t-10.35-.22a.6.6,0,0,0,0-.19.6.6,0,0,0,0-.19v-.18a.31.31,0,0,0,0-.19V357a17.46,17.46,0,0,1,1.26-6.65,15.87,15.87,0,0,1,8.78-8.87,18,18,0,0,1,6.69-1.28q6.33.1,12.66.28t12.61.42c4.19.16,8.39.36,12.57.58s8.38.45,12.56.71A67.87,67.87,0,0,1,450,347.63,59,59,0,0,1,468.28,360a55.28,55.28,0,0,1,16.21,39A50.19,50.19,0,0,1,483,411.76a44.19,44.19,0,0,1-4.56,11.31,41.07,41.07,0,0,1-7.48,9.44,42.74,42.74,0,0,1-10.26,7.1m-36.08-27.17a22.56,22.56,0,0,0,7.69-1.22,15.27,15.27,0,0,0,5.7-3.46,14.4,14.4,0,0,0,3.55-5.41,19.33,19.33,0,0,0,1.2-7.07,19.82,19.82,0,0,0-1.37-7.33,17.79,17.79,0,0,0-3.91-6,19.19,19.19,0,0,0-6.22-4.14,25.09,25.09,0,0,0-8.34-1.82c-1.85-.09-3.73-.19-5.6-.27l-5.6-.25-5.6-.21-5.61-.19v36.39l5.62.19,5.61.21,5.61.25,5.62.28h1.58" transform="translate(-9.18 -170.9)"/><path class="cls-3" d="M359.4,483.73l.05.19v.37a.27.27,0,0,0,.05.19c-3.32,0-6.63.06-9.93.12s-6.61.11-9.9.2-6.59.18-9.87.3-6.57.24-9.85.39c-.4-1.57-.8-3.14-1.19-4.7s-.8-3.15-1.19-4.71-.8-3.15-1.18-4.7-.79-3.15-1.19-4.71q-8,.39-16,.9c-5.34.33-10.66.72-16,1.14s-10.66.87-16,1.37-10.65,1-16,1.6l-2.56,4.79-2.56,4.8-2.56,4.8-2.41,4.83L230.31,492c-3.61.38-7.2.78-10.8,1.19s-7.19.85-10.79,1.3-7.19.92-10.78,1.41q8.81-17.46,17.6-34.77t17.56-34.35q8.76-17.06,17.51-33.94t17.47-33.54a36.06,36.06,0,0,1,5.77-7.91,36.6,36.6,0,0,1,16.38-9.91,35.44,35.44,0,0,1,9.66-1.36h1.34a32.44,32.44,0,0,1,9,1.61A29.48,29.48,0,0,1,318,345.6a26.94,26.94,0,0,1,6,5.82,25.49,25.49,0,0,1,3.82,7.42l.07.26a.81.81,0,0,0,.08.25c0,.08,0,.18.07.26s0,.18.07.26q3.9,15.33,7.79,30.71l7.82,30.88q3.9,15.5,7.84,31t7.87,31.21M269.07,437c3.16-.29,6.33-.57,9.49-.82s6.33-.52,9.5-.74,6.34-.46,9.51-.67,6.33-.4,9.5-.58l-3-11.89q-1.51-5.94-3-11.87l-3-11.85c-1-3.94-2-7.89-3-11.82q-3.24,6.22-6.49,12.48t-6.5,12.53q-3.25,6.27-6.5,12.59T269.07,437" transform="translate(-9.18 -170.9)"/><path class="cls-3" d="M188.74,351.71a51.42,51.42,0,0,1,18.49,3.19,40.39,40.39,0,0,1,14.1,9.06,39.56,39.56,0,0,1,9,14,49.25,49.25,0,0,1,3,17.94A57.09,57.09,0,0,1,229,417.3a60.64,60.64,0,0,1-11.86,18.27,69.33,69.33,0,0,1-18.26,13.8,80.75,80.75,0,0,1-23.48,8c-2.9.53-5.79,1.06-8.68,1.61s-5.78,1.1-8.66,1.67-5.78,1.15-8.66,1.75-5.77,1.2-8.65,1.82c-.05,3.53-.09,7.06-.14,10.59s-.09,7.07-.13,10.6-.09,7.08-.14,10.62-.09,7.08-.13,10.63q-5.12,1.11-10.22,2.25t-10.2,2.35q-5.1,1.22-10.19,2.45t-10.18,2.55q.24-16.47.49-32.91t.49-32.78q.24-16.35.49-32.67t.48-32.55a22,22,0,0,1,1.35-7.17,25,25,0,0,1,3.54-6.55,23.23,23.23,0,0,1,5.31-5.16,19.85,19.85,0,0,1,6.66-3q7.26-1.53,14.54-3t14.56-2.75c4.85-.88,9.72-1.73,14.58-2.55s9.74-1.6,14.61-2.34c1.06-.19,2.11-.36,3.15-.5s2.07-.26,3.08-.35,2-.16,3-.21,2-.07,2.94-.07m-16.19,72.09A29,29,0,0,0,181,420.9a23.54,23.54,0,0,0,6.32-4.9,20.94,20.94,0,0,0,5.41-13.91,18.24,18.24,0,0,0-1-6.18,13.21,13.21,0,0,0-2.91-4.8,12.84,12.84,0,0,0-4.73-3.1,17.59,17.59,0,0,0-6.41-1.11H176.5l-1.16.08-1.21.14c-.41.06-.82.12-1.24.2-2.61.47-5.21,1-7.82,1.47s-5.2,1-7.81,1.52-5.2,1-7.8,1.58-5.2,1.08-7.81,1.64l-.11,9.1c0,3-.08,6.07-.11,9.11l-.12,9.12c0,3.05-.07,6.09-.11,9.13,2.6-.56,5.21-1.1,7.81-1.64s5.21-1.08,7.82-1.59,5.22-1,7.83-1.52l7.83-1.48" transform="translate(-9.18 -170.9)"/><path class="cls-3" d="M491.77,349.76c3.41.39,6.83.81,10.24,1.25s6.81.87,10.22,1.33,6.82.94,10.21,1.42,6.81,1,10.21,1.53q.06,6.75.14,13.47l.11,13.5q.06,6.75.14,13.51l.11,13.54,12.12-11.57q6-5.75,12.1-11.39t12.06-11.26l12-11.09q6.41,1.29,12.82,2.67c4.26.91,8.53,1.86,12.79,2.82s8.52,2,12.77,3,8.5,2.06,12.75,3.14Q625.29,382,618,388.51T603.38,401.6q-7.32,6.63-14.68,13.36T574,428.52q7.74,12,15.46,24.13t15.46,24.43q7.74,12.29,15.47,24.7t15.48,25c-4.18-1.23-8.37-2.45-12.56-3.63s-8.38-2.35-12.58-3.49-8.4-2.24-12.6-3.33-8.41-2.14-12.62-3.17q-4.77-7.56-9.53-15.06l-9.54-15q-4.75-7.44-9.53-14.84t-9.52-14.74l-3.41,3.22L540.52,460l-3.41,3.24-3.42,3.26.09,8.94c0,3,.05,6,.08,9s.06,6,.08,9l.09,9q-5.14-1-10.3-1.93l-10.31-1.83q-5.16-.9-10.31-1.73c-3.44-.55-6.88-1.1-10.32-1.62q-.14-18.32-.26-36.59t-.25-36.43Q492.13,404.1,492,386t-.25-36.14" transform="translate(-9.18 -170.9)"/><path class="cls-1" d="M692.35,216h-2.12v-1.43h5.84V216h-2.14v5.62h-1.55Z" transform="translate(-9.18 -170.9)"/><path class="cls-1" d="M696.73,214.61h1.66l1.85,3,1.86-3h1.67v7h-1.54v-4.55l-2,3h0l-2-3v4.58h-1.5Z" transform="translate(-9.18 -170.9)"/></g></svg>
