<svg height="39" width="125" xmlns="http://www.w3.org/2000/svg"><g fill="#fff" fill-rule="evenodd"><path d="m53.906 13.984c0-4.375 3.594-7.89 8.047-7.89v-5.547c-7.656 0-13.906 6.093-13.983 13.593v.156h5.937v-.313z"/><path d="m61.953.547v5.547c4.453 0 8.047 3.515 8.047 7.89v.313h5.938v-.156c-.079-7.579-6.329-13.594-13.985-13.594z"/><g><path d="m5.86 9.844v11.406h.077c.157-.39.391-.703.704-1.094s.703-.703 1.171-1.015 1.016-.547 1.563-.703c.625-.235 1.25-.235 2.031-.235 1.563 0 2.735.235 3.672.703s1.64 1.094 2.188 1.953.859 1.797 1.015 2.891c.235 1.094.235 2.344.235 3.594v10.703h-5.938v-9.531c0-.547 0-1.172-.078-1.72s-.156-1.171-.39-1.64c-.235-.547-.547-.86-.86-1.172-.39-.312-1.016-.468-1.797-.468s-1.328.156-1.875.39c-.469.235-.86.625-1.094 1.094s-.39 1.016-.468 1.563-.079 1.171-.079 1.875v9.609h-5.937v-28.203zm89.999 0h5.938v28.203h-5.938z"/><path d="m124.063 34.688c-.938 1.25-2.188 2.187-3.594 2.812a10.352 10.352 0 0 1 -4.531 1.016c-1.485 0-2.891-.235-4.22-.703s-2.5-1.172-3.437-2.032-1.719-1.953-2.265-3.203-.86-2.656-.86-4.14c0-1.563.235-2.97.86-4.141.546-1.25 1.328-2.344 2.265-3.203s2.11-1.563 3.438-2.032 2.734-.703 4.219-.703c1.328 0 2.656.235 3.75.703s2.109 1.172 2.812 2.032c.781.86 1.328 1.953 1.797 3.203.39 1.25.703 2.656.703 4.14v1.875h-13.906c.234 1.172.703 2.032 1.562 2.735.781.703 1.797 1.016 2.969 1.016 1.016 0 1.797-.235 2.5-.626s1.25-1.015 1.797-1.718zm-5-8.516c0-1.016-.313-1.875-1.016-2.578s-1.563-1.094-2.656-1.094c-.704 0-1.25.078-1.72.313-.546.234-.937.468-1.327.78s-.625.704-.86 1.173c-.234.39-.312.859-.312 1.406zm-81.563 11.875v-2.5h-.078c-.234.312-.547.703-.938 1.094s-.859.703-1.328.937c-.547.234-1.093.547-1.718.703s-1.25.235-1.954.235c-1.484 0-2.734-.235-3.906-.782-1.172-.468-2.11-1.172-2.969-2.03a9.546 9.546 0 0 1 -1.953-3.204c-.39-1.25-.703-2.578-.703-4.063 0-1.328.235-2.656.625-3.906s1.016-2.343 1.797-3.281 1.64-1.719 2.734-2.344 2.344-.86 3.672-.86c1.25 0 2.813.157 3.828.548 1.094.39 2.11 1.093 2.813 2.031h.078v-1.875h5.938v19.297zm.078-9.766c0-1.484-.39-2.656-1.25-3.515-.86-.938-2.031-1.407-3.516-1.407-1.562 0-2.734.47-3.515 1.407-.86.937-1.25 2.109-1.25 3.515 0 1.485.39 2.657 1.25 3.516.86.937 2.031 1.406 3.515 1.406 1.563 0 2.735-.469 3.516-1.406.781-.86 1.25-2.031 1.25-3.516z" fill-rule="nonzero"/><path d="m66.172 23.672c-.234-1.094-.547-2.031-1.016-2.89-.547-.86-1.172-1.485-2.187-1.954s-2.188-.703-3.672-.703c-.703 0-1.328.078-2.031.234-.625.235-1.172.391-1.641.703s-.86.625-1.172 1.016c-.234.235-.39.547-.625.781v-2.109h-5.937v19.297h5.937v-9.61c0-.625 0-1.25.078-1.875.078-.546.235-1.093.469-1.562s.625-.86 1.094-1.094c.547-.234 1.093-.39 1.875-.39s1.328.156 1.797.468c.39.313.703.703.859 1.172.234.469.313 1.016.39 1.64.079.548.079 1.173.079 1.72v9.53h5.937v-10.701c.078-1.328 0-2.5-.234-3.672z"/><path d="m85.469 38.047v-2.5h-.078c-.235.312-.547.703-.938 1.094s-.86.703-1.328.937c-.547.234-1.094.547-1.719.703s-1.25.235-1.953.235c-1.484 0-2.734-.235-3.906-.782-1.172-.468-2.11-1.172-2.969-2.03a9.546 9.546 0 0 1 -1.953-3.204c-.39-1.25-.703-2.578-.703-4.063 0-1.328.234-2.656.625-3.906s1.016-2.343 1.797-3.281 1.64-1.719 2.734-2.344 2.344-.86 3.672-.86c1.25 0 2.813.157 3.828.548 1.094.39 2.11 1.093 2.813 2.031h.078v-10.938h5.937v28.204h-5.936zm.078-9.766c0-1.484-.39-2.656-1.25-3.515-.86-.938-2.031-1.407-3.516-1.407-1.562 0-2.734.47-3.515 1.407-.86.937-1.25 2.109-1.25 3.515 0 1.485.39 2.657 1.25 3.516.859.937 2.03 1.406 3.515 1.406 1.563 0 2.735-.469 3.516-1.406.86-.86 1.25-2.031 1.25-3.516z" fill-rule="nonzero"/></g></g></svg>