<svg fill="none" height="80" viewBox="0 0 272 80" width="272" xmlns="http://www.w3.org/2000/svg" xmlns:xlink="http://www.w3.org/1999/xlink"><clipPath id="a"><path d="m0 0h272v80h-272z"/></clipPath><clipPath id="b"><path d="m0 20h272.432v40h-272.432z"/></clipPath><g clip-path="url(#a)"><g clip-path="url(#b)" fill="#fff"><path d="m73.1367 31.8271h2.8404v6.7718h7.7676v-6.7718h2.8403v16.3456h-2.8403v-6.8885h-7.7676v6.8885h-2.8404z"/><path d="m92.7005 40.0526c-.0158-1.0864.1859-2.1649.5933-3.1711.4073-1.0062 1.0119-1.9193 1.7775-2.6849s1.6766-1.3679 2.6785-1.771c1.002-.403 2.0743-.5986 3.1532-.5749 1.071-.0341 2.137.1509 3.135.5436.997.3928 1.906.9852 2.67 1.7415s1.367 1.6607 1.775 2.6586c.407.9979.609 2.0686.593 3.1473v.0584c.014 1.0845-.19 2.1606-.598 3.164-.409 1.0035-1.014 1.9138-1.78 2.6766-.765.7628-1.675 1.3625-2.676 1.7631-1.001.4007-2.072.5943-3.148.5691-1.0734.0342-2.1423-.1516-3.142-.5462-.9997-.3945-1.9094-.9896-2.6737-1.749-.7644-.7594-1.3676-1.6674-1.7729-2.6687s-.6043-2.0752-.5849-3.1564zm13.4485 0c0-3.0881-2.232-5.6158-5.298-5.6158-3.0668 0-5.2174 2.4693-5.2174 5.5633v.0584c0 3.0356 2.2318 5.6159 5.2984 5.6159 3.066 0 5.217-2.5278 5.217-5.6218z"/><path d="m118.235 34.5125h-5.159v-2.6854h13.158v2.6854h-5.159v13.6602h-2.898v-13.6602z"/><path d="m131.567 31.8271h12.057v2.5686h-9.158v4.2616h8.115v2.5686h-8.115v4.3783h9.274v2.5685h-12.173z"/><path d="m149.421 31.8271h2.841v13.7303h8.521v2.627h-11.362z"/><path d="m166.405 31.8271h11.536v1.1092h-10.318v6.4215h9.274v1.1092h-9.274v6.5382h10.434v1.1092h-11.652z"/><path d="m184.259 31.8271h1.16l11.187 14.2441v-14.2441h1.16v16.3456h-.928l-11.419-14.5359v14.5359h-1.16z"/><path d="m204.432 40.0757c0-4.3082 3.095-8.272 7.761-8.272 2.11-.0692 4.164.6812 5.739 2.0957l-.788.9049c-1.374-1.2808-3.189-1.9719-5.061-1.9265-3.826 0-6.527 3.2867-6.527 7.0812v.0584c0 4.0864 2.533 7.1395 6.753 7.1395 1.826-.0135 3.593-.654 5.009-1.8155v-4.5301h-5.293v-1.0917h6.411v6.118c-1.708 1.5189-3.9 2.3702-6.179 2.3993-4.898 0-7.825-3.6836-7.825-8.1612z"/><path d="m225.589 31.8271h1.218v16.3456h-1.218z"/><path d="m234.111 31.8271h1.159l11.188 14.2441v-14.2441h1.159v16.3456h-.928l-11.419-14.5359v14.5359h-1.159z"/><path d="m254.747 31.8271h11.535v1.1092h-10.318v6.4215h9.275v1.1092h-9.275v6.5382h10.434v1.1092h-11.651z"/><path d="m13.5178 30.0527h-3.3388v20.0351h3.3388z"/><path d="m23.065 30.0527h-3.3389v20.0351h3.3389z"/><path d="m21.8245 38.7563h-9.6109v3.3626h9.6109z"/><path d="m39.9856 30.0527h-10.0457v3.3626h10.0457z"/><path d="m39.9856 38.3828h-10.0457v3.3625h10.0457z"/><path d="m39.9856 46.7192h-10.0457v3.3626h10.0457z"/><path d="m0 20v40h50.1645v-40zm46.8604 36.6492h-43.55629v-33.3217h43.55629z"/><path d="m269 46.7252c-.001-.136.017-.2716.052-.4028.035-.1267.085-.2484.151-.362.064-.1109.142-.213.232-.3035.09-.09.192-.1685.301-.2335.229-.135.489-.2061.754-.2061s.525.0711.753.2061c.11.0651.211.1436.302.2335.09.0906.168.1926.232.3035.065.1136.116.2353.15.362.071.2564.073.5273.006.7848s-.201.4924-.388.6805c-.091.09-.192.1684-.302.2335-.228.1355-.488.207-.753.207s-.525-.0715-.754-.207c-.11-.065-.211-.1434-.301-.2335-.09-.0907-.168-.1927-.232-.3036-.065-.1117-.116-.2314-.151-.3561-.036-.1312-.053-.2668-.052-.4028zm.203 0c0 .1183.016.236.046.3503.058.2201.172.4213.331.5837.159.1634.359.2803.579.3386.114.0315.231.0472.348.0467.174.0002.345-.0355.504-.1051.154-.0658.294-.161.412-.2802.119-.1209.213-.2636.278-.4203.067-.1628.101-.3375.099-.5137.001-.2352-.059-.4666-.174-.6713-.056-.0978-.124-.1881-.203-.2686-.077-.0814-.165-.152-.261-.2101-.098-.0584-.203-.1036-.313-.1343-.113-.0316-.23-.0474-.348-.0467-.173-.0007-.345.0351-.504.1051-.154.0673-.294.1645-.412.286-.244.2511-.381.5884-.382.9399zm.997.1868v.7297h-.319v-1.8389h.58c.183-.0137.365.0313.522.1285.056.0446.101.1025.13.1686.03.0662.042.1385.038.2108.002.1186-.037.2342-.111.3269-.084.0967-.198.1624-.324.1868.022.0141.042.0319.058.0526l.046.07.47.6889h-.302c-.019.0008-.039-.0036-.056-.0128s-.032-.023-.042-.0398l-.412-.6246c-.012-.0171-.028-.0311-.046-.0409-.027-.0066-.055-.0066-.081 0zm0-.2335h.238c.063.0084.127.0084.191 0 .047-.0116.09-.0336.127-.0642.032-.0264.056-.0606.07-.0993.008-.0463.008-.0937 0-.1401.007-.0444.007-.0898 0-.1342-.012-.0365-.034-.0688-.064-.0934-.034-.0279-.073-.0478-.116-.0584-.059-.0074-.12-.0074-.179 0h-.273z"/></g></g></svg>