<svg height="39" viewBox="0 0 204 39" width="204" xmlns="http://www.w3.org/2000/svg"><path d="m72.5695463 32.4410711c-.6416972 0-1.1908337-.2289723-1.647426-.6869236s-.684885-1.0087223-.684885-1.6523296v-22.05581533c0-.47032838.1604219-.87257689.4812705-1.20675758.3208487-.33418069.7157333-.50126853 1.1846659-.50126853s.8699874.16708784 1.2031763.50126853c.333189.33418069.499781.7364292.499781 1.20675758v21.01614723h12.1058045c.4689326 0 .8699873.1670879 1.2031763.5012686.3331889.3341807.4997809.7364292.4997809 1.2067576 0 .4703283-.166592.8663884-.4997809 1.188192-.333189.3218037-.7342437.4827031-1.2031763.4827031zm30.4311047.37131c-2.591469 0-4.8620562-.5693364-6.8118286-1.7080261-1.9497723-1.1386898-3.4552702-2.7105532-4.5165387-4.7156373-1.0612685-2.0050842-1.616575-4.3071833-1.6659364-6.9063664.0493614-2.5991832.6046679-4.9012823 1.6659364-6.9063665 1.0612685-2.0050841 2.5667664-3.57694748 4.5165387-4.71563724 1.9497724-1.13868977 4.2203596-1.70802611 6.8118286-1.70802611 2.59147 0 4.855887.56933634 6.793319 1.70802611 1.937432 1.13868976 3.44293 2.71674154 4.516538 4.73420274 1.073609 2.0174613 1.635086 4.3133719 1.684447 6.887801-.049361 2.574429-.610838 4.8703397-1.684447 6.8878009-1.073608 2.0174612-2.579106 3.595513-4.516538 4.7342028-1.937432 1.1386897-4.201849 1.7080261-6.793319 1.7080261zm0-3.1561352c1.974453 0 3.689734-.4455676 5.145893-1.3367161s2.566772-2.1040825 3.331873-3.6388382c.7651-1.5347558 1.147645-3.2675186 1.147645-5.1983403 0-1.9308218-.382545-3.6635846-1.147645-5.1983404-.765101-1.5347557-1.875714-2.7476897-3.331873-3.6388382-1.456159-.89114848-3.17144-1.33671606-5.145893-1.33671606-1.999133 0-3.7205838.44556758-5.1644026 1.33671606-1.4438187.8911485-2.5482618 2.1040825-3.3133624 3.6388382-.7651005 1.5347558-1.147645 3.2675186-1.147645 5.1983404 0 1.9308217.3825445 3.6635845 1.147645 5.1983403.7651006 1.5347557 1.8695437 2.7476897 3.3133624 3.6388382 1.4438188.8911485 3.1652696 1.3367161 5.1644026 1.3367161zm30.060897 3.1561352c-2.591469 0-4.862056-.5693364-6.811829-1.7080261-1.949772-1.1386898-3.45527-2.7105532-4.516538-4.7156373-1.061269-2.0050842-1.616575-4.3071833-1.665937-6.9063664.049362-2.5991832.604668-4.9012823 1.665937-6.9063665 1.061268-2.0050841 2.566766-3.57694748 4.516538-4.71563724 1.949773-1.13868977 4.22036-1.70802611 6.811829-1.70802611 2.59147 0 4.855887.56933634 6.793319 1.70802611 1.937432 1.13868976 3.44293 2.71674154 4.516538 4.73420274 1.073609 2.0174613 1.635086 4.3133719 1.684447 6.887801-.049361 2.574429-.610838 4.8703397-1.684447 6.8878009-1.073608 2.0174612-2.579106 3.595513-4.516538 4.7342028-1.937432 1.1386897-4.201849 1.7080261-6.793319 1.7080261zm0-3.1561352c1.974453 0 3.689734-.4455676 5.145893-1.3367161s2.566772-2.1040825 3.331872-3.6388382c.765101-1.5347558 1.147646-3.2675186 1.147646-5.1983403 0-1.9308218-.382545-3.6635846-1.147646-5.1983404-.7651-1.5347557-1.875713-2.7476897-3.331872-3.6388382-1.456159-.89114848-3.17144-1.33671606-5.145893-1.33671606-1.999133 0-3.720584.44556758-5.164403 1.33671606-1.443818.8911485-2.548262 2.1040825-3.313362 3.6388382-.765101 1.5347558-1.147645 3.2675186-1.147645 5.1983404 0 1.9308217.382544 3.6635845 1.147645 5.1983403.7651 1.5347557 1.869544 2.7476897 3.313362 3.6388382 1.443819.8911485 3.16527 1.3367161 5.164403 1.3367161zm20.287404 2.9704802c-.468933 0-.863818-.1608994-1.184666-.4827031-.320849-.3218036-.481271-.7178637-.481271-1.188192v-22.16720839c0-.66836138.234463-1.24388616.703396-1.7265916.468932-.48270545 1.036579-.72405455 1.702957-.72405455h.48127c.789781 0 1.468489.37130631 2.036145 1.11393007l14.253011 20.64483727v-20.05074123c0-.47032838.160422-.87257689.481271-1.20675758.320848-.33418069.715733-.50126853 1.184666-.50126853.468932 0 .869987.16708784 1.203176.50126853s.499781.7364292.499781 1.20675758v22.16720833c0 .6683614-.240633 1.2376977-.721906 1.7080261s-1.05509.7054891-1.721468.7054891h-.444249c-.394891 0-.765095-.0928266-1.110625-.2784826-.345529-.1856559-.629352-.427005-.851478-.7240545l-14.327053-20.7562303v20.0878723c0 .4703283-.166592.8663884-.499781 1.188192-.333189.3218037-.734244.4827031-1.203176.4827031zm27.987731 0c-.493613 0-.894668-.1608994-1.203176-.4827031-.308508-.3218036-.46276-.7178637-.46276-1.188192 0-.198033.0617-.4455706.185104-.7426201l9.440306-22.35286334c.197445-.44557426.475099-.81069213.832968-1.09536457.35787-.28467244.795945-.42700653 1.314239-.42700653h.370208c.518294 0 .956369.14233409 1.314239.42700653.357869.28467244.635523.64979031.832968 1.09536457l9.440306 22.35286334c.123404.2970495.185104.5445871.185104.7426201 0 .4703283-.154251.8663884-.46276 1.188192-.308508.3218037-.709563.4827031-1.203176.4827031-.345529 0-.660203-.0928266-.944031-.2784826-.283827-.1856559-.49978-.4393819-.647864-.7611855l-2.406352-5.7924364h-12.587075l-2.406353 5.7924364c-.148084.3218036-.364037.5755296-.647864.7611855-.283828.185656-.598502.2784826-.944031.2784826zm5.293976-9.9139776h9.995618l-4.997809-12.0675758zm-141.3200096 10.6131411v3.9118455c0 .9537778-.7709745 1.7269674-1.7220199 1.7269674-.9510453 0-1.7220199-.7731896-1.7220199-1.7269674v-3.7777608l-28.8438339.0000185v3.7777423c0 .9537778-.7709746 1.7269674-1.7220199 1.7269674s-1.72201993-.7731896-1.72201993-1.7269674v-3.9084828c-5.42393094-.8316528-9.57873587-5.5304701-9.57873587-11.2024822 0-6.2591666 5.05952071-11.3332237 11.3007558-11.3332237.1797727 0 .3590643.0042236.5377673.0126408 2.416404-6.41032763 8.5781319-10.8061872 15.6061696-10.8061872 7.0250155 0 13.1878124 4.39246741 15.6057332 10.8052016.1716313-.0077613.3438013-.0116552.5164149-.0116552 6.2412351 0 11.3007558 5.0740571 11.3007558 11.3332237 0 5.6644146-4.1436819 10.3582398-9.5569472 11.1991195zm-34.0098936-3.3198306h32.2660878c4.3391416 0 7.8567132-3.5276778 7.8567132-7.8792889s-3.5175716-7.8792888-7.856716-7.8792888c-.4729866 0-.9398262.0417187-1.3971566.1239135-1.9829709.6168998-3.1423358 1.6023109-3.6464364 2.9819605-.5543848 1.5172698-.3909279 3.6716602.5868634 6.4645828.315059.8999215-.1569757 1.8855916-1.0543191 2.2015558-.8973433.3159642-1.8801896-.1574268-2.1952486-1.0573482-1.2190173-3.4819506-1.4415375-6.4148062-.5710675-8.7971551.7423005-2.031568 2.2350764-3.5468009 4.3839954-4.5312822-2.0174421-4.87225059-6.7990799-8.17977355-12.2287787-8.17977355-5.4348022 0-10.2178399 3.31351391-12.2323087 8.18815855 2.1391174.9846909 3.6255403 2.4970881 4.3657367 4.5228972.8704699 2.3823489.6479498 5.3152045-.5710675 8.7971551-.315059.8999214-1.2979053 1.3733124-2.1952487 1.0573482-.8973433-.3159642-1.369378-1.3016343-1.054319-2.2015558.9777913-2.7929226 1.1412481-4.947313.5868634-6.4645828-.5041006-1.3796496-1.6634656-2.3650607-3.6464365-2.9819605-.4573304-.0821948-.92417-.1239135-1.3971566-.1239135-4.3391444 0-7.85671594 3.5276777-7.85671594 7.8792888s3.51757154 7.8792889 7.85671594 7.8792889z" fill="#fff"/></svg>