<?xml version="1.0" encoding="UTF-8"?>
<svg width="758px" height="256px" viewBox="0 0 758 256" version="1.1" xmlns="http://www.w3.org/2000/svg" xmlns:xlink="http://www.w3.org/1999/xlink">
    <!-- Generator: Sketch 60.1 (88133) - https://sketch.com -->
    <title>Loona-logo</title>
    <desc>Created with Sketch.</desc>
    <g id="Page-1" stroke="none" stroke-width="1" fill="none" fill-rule="evenodd">
        <path d="M497.668534,92.4444444 C541.471322,92.4444444 577.117806,127.041778 579.242777,170.482444 L579.242777,170.482444 L579.444444,170.482444 L579.444444,236.713714 C579.444444,247.989993 569.801781,257.007642 558.342248,255.909255 C548.35227,254.951446 541.015704,245.954415 541.015704,235.881488 L541.015704,235.881488 L541.015704,174.330549 C540.899932,150.43031 521.502568,131.02109 497.668534,131.02109 C473.830764,131.02109 454.435268,150.43031 454.319496,174.330549 L454.319496,174.330549 L454.319496,236.713714 C454.319496,247.989993 444.674965,257.007642 433.213565,255.909255 C423.225454,254.951446 415.888889,245.954415 415.888889,235.881488 L415.888889,235.881488 L415.888889,113.310059 C415.888889,102.952227 423.615717,93.7490144 433.913798,93.1229704 C439.764004,92.7668384 445.057759,95.0535834 448.781126,98.8941914 C452.067549,102.286821 457.314622,103.019705 461.538422,100.918523 C472.432167,95.5053094 484.687163,92.4444444 497.668534,92.4444444 Z M675.170719,92.4444444 C688.238746,92.4444444 700.57736,95.5475064 711.520413,101.042277 C715.787106,103.1838 721.07721,102.395899 724.381897,98.9455634 C728.060594,95.1031444 733.30604,92.8010544 739.113431,93.1109864 C749.440578,93.6617704 757.222222,102.873867 757.222222,113.247278 L757.222222,113.247278 L757.222222,235.200204 C757.222222,245.573615 749.440578,254.783844 739.115292,255.334628 C733.304179,255.644561 728.056872,253.338736 724.380036,249.498184 C721.032552,246.003039 715.699651,245.325295 711.373414,247.485489 C699.421836,253.45076 685.80861,256.565024 671.41201,255.915285 C630.019692,254.051955 595.986628,220.207675 593.785364,178.693493 C591.28266,131.499702 628.681815,92.4444444 675.170719,92.4444444 Z M17.5832559,21.4255014 C29.2125746,20.3098884 39,29.4689534 39,40.9239714 L39,40.9239714 L39,236.411266 C39,247.86438 29.2125746,257.023444 17.5832559,255.907832 C7.44526493,254.935002 0,245.798783 0,235.565989 L0,235.565989 L0,41.7673434 C0,31.5364534 7.44526493,22.3983304 17.5832559,21.4255014 Z M238.526483,182.578199 C233.395773,130.84985 276.512036,87.7323134 328.237361,92.8592184 C366.510443,96.6511874 397.464607,127.60866 401.252893,165.881216 C406.372401,217.596496 363.271075,260.700964 311.555085,255.587128 C273.283871,251.80076 242.324105,220.848888 238.526483,182.578199 Z M60.747598,182.567739 C55.624395,130.847045 98.734729,87.7371314 150.455927,92.8584174 C188.728718,96.6503724 219.684514,127.605867 223.474639,165.880151 C228.597842,217.598978 185.485641,260.708891 133.76631,255.585738 C95.495386,251.793784 64.53959,220.838289 60.747598,182.567739 Z M184.854576,181.576342 C189.753732,151.952045 164.378568,126.578995 134.753983,131.478104 C116.805969,134.448562 102.332547,148.923709 99.365794,166.871548 C94.470372,196.493977 119.841803,221.863293 149.46452,216.966052 C167.412534,213.997461 181.885956,199.522313 184.854576,181.576342 Z M717.768802,181.576241 C722.651402,151.951527 697.361989,126.578119 667.837515,131.479164 C649.952015,134.447797 635.525643,148.923148 632.568915,166.87124 C627.690037,196.494087 652.975728,221.863761 682.498341,216.966451 C700.385703,213.997818 714.810214,199.522466 717.768802,181.576241 Z M362.632537,181.577463 C367.529863,151.954927 342.161974,126.581785 312.539031,131.477177 C294.590881,134.442045 280.113615,148.917245 277.144973,166.863281 C272.245779,196.489552 297.615536,221.862693 327.242213,216.965434 C345.188496,213.9987 359.665762,199.5235 362.632537,181.577463 Z M366.756344,5.17574939 C374.745038,12.6547204 375.426172,25.6034154 368.269554,33.9519424 L336.11289,71.4651034 C329.037598,79.7187614 316.846611,80.5082804 308.851022,73.2982664 L308.576989,73.0464734 C300.588294,65.5675024 299.907161,52.6188074 307.063778,44.2702804 L339.220443,6.75711839 C346.37706,-1.59140861 358.769536,-2.30322161 366.756344,5.17574939 Z" id="Loona-logo" fill="#FFFFFF" fill-rule="nonzero"></path>
    </g>
</svg>