<svg enable-background="new 0 0 119 83" viewBox="0 0 119 83" xmlns="http://www.w3.org/2000/svg"><g fill="#fff"><path d="m.5 71c0-.2.1-.3.3-.3h3.9c2 0 3.7 1.7 3.7 3.7 0 2.1-1.7 3.7-3.7 3.7h-2v3.9c0 .2-.1.3-.3.3h-1.6c-.2 0-.3-.1-.3-.3zm4.1 5.1c.9 0 1.7-.8 1.7-1.7s-.8-1.6-1.7-1.6h-1.9v3.3z"/><path d="m9.9 71c0-.2.1-.3.3-.3h1.5c.2 0 .3.1.3.3v11c0 .2-.1.3-.3.3h-1.5c-.2 0-.3-.1-.3-.3z"/><path d="m14.8 71c0-.2.1-.3.3-.3h6.8c.2 0 .3.1.3.3v1.4c0 .2-.1.3-.3.3h-4.9v2.7h4c.2 0 .3.1.3.3v1.4c0 .2-.1.3-.3.3h-4.1v2.9h4.9c.2 0 .3.1.3.3v1.4c0 .2-.1.3-.3.3h-6.8c-.2 0-.3-.1-.3-.3v-11z"/><path d="m28.2 71c0-.2.1-.3.3-.3h1.5c.2 0 .3.1.3.3v11c0 .2-.1.3-.3.3h-1.5c-.2 0-.3-.1-.3-.3z"/><path d="m33 70.8c0-.2.1-.3.3-.3h.4l6.9 7.3v-6.8c0-.2.1-.3.3-.3h1.5c.2 0 .3.1.3.3v11.2c0 .2-.1.3-.3.3h-.4l-6.9-7.6v7.1c0 .2-.1.3-.3.3h-1.5c-.2 0-.3-.1-.3-.3z"/><path d="m45 80.7.6-1c.1-.2.4-.2.6-.1.1 0 1.4 1 2.5 1 .9 0 1.5-.6 1.5-1.3 0-.9-.7-1.4-2.1-2-1.5-.6-3.1-1.6-3.1-3.6 0-1.5 1.1-3.2 3.7-3.2 1.7 0 3 .9 3.3 1.1.2.1.2.4.1.5l-.6.9c-.1.2-.4.3-.6.2-.1-.1-1.4-.9-2.3-.9s-1.5.6-1.5 1.2c0 .8.6 1.3 2 1.9 1.6.6 3.5 1.6 3.5 3.7 0 1.7-1.5 3.3-3.8 3.3-2.1 0-3.3-1-3.7-1.3-.2-.1-.3-.2-.1-.4z"/><path d="m54.2 71c0-.2.1-.3.3-.3h1.6c.2 0 .3.1.3.3v6.8c0 1.4 1 2.5 2.4 2.5s2.4-1.1 2.4-2.5v-6.8c0-.2.1-.3.3-.3h1.6c.2 0 .3.1.3.3v6.9c0 2.5-2 4.6-4.6 4.6s-4.6-2.1-4.6-4.6z"/><path d="m66 71c0-.2.1-.3.3-.3h4.7c2 0 3.6 1.6 3.6 3.6 0 1.5-1 2.8-2.4 3.3l2.3 4.2c.1.2 0 .5-.3.5h-1.8c-.1 0-.2-.1-.3-.1l-2.1-4.5h-1.8v4.3c0 .2-.1.3-.3.3h-1.5c-.2 0-.3-.1-.3-.3v-11zm4.9 5c.9 0 1.7-.8 1.7-1.7s-.8-1.6-1.7-1.6h-2.7v3.3z"/><path d="m75.6 81.9 5.2-11.2c0-.1.1-.2.3-.2h.2c.2 0 .2.1.3.2l5.1 11.2c.1.2 0 .4-.3.4h-1.4c-.3 0-.4-.1-.5-.3l-.8-1.8h-5l-.9 1.8c-.1.2-.2.3-.5.3h-1.4c-.3 0-.4-.2-.3-.4zm7.2-3.6-1.7-3.7-1.6 3.7z"/><path d="m87.9 70.8c0-.2.1-.3.3-.3h.4l6.9 7.3v-6.8c0-.2.1-.3.3-.3h1.5c.2 0 .3.1.3.3v11.2c0 .2-.1.3-.3.3h-.3l-7-7.6v7.1c0 .2-.1.3-.3.3h-1.5c-.2 0-.3-.1-.3-.3z"/><path d="m105.6 70.5c1.7 0 2.9.5 4 1.5.1.1.1.3 0 .5l-1 1c-.1.1-.3.1-.4 0-.7-.6-1.6-1-2.6-1-2.1 0-3.7 1.8-3.7 3.9s1.6 3.8 3.7 3.8c1 0 1.8-.4 2.6-.9.1-.1.3-.1.4 0l1 1.1c.1.1.1.3 0 .4-1.1 1.1-2.6 1.6-4 1.6-3.3 0-6-2.6-6-6 0-3.2 2.6-5.9 6-5.9z"/><path d="m111.4 71c0-.2.1-.3.3-.3h6.8c.2 0 .3.1.3.3v1.4c0 .2-.1.3-.3.3h-4.9v2.7h4.1c.2 0 .3.1.3.3v1.4c0 .2-.1.3-.3.3h-4.1v2.9h4.9c.2 0 .3.1.3.3v1.4c0 .2-.1.3-.3.3h-6.8c-.2 0-.3-.1-.3-.3z"/><path d="m59.9 54.5c15.1 0 27.4-12.1 27.4-27s-12.3-27-27.4-27-27.4 12.1-27.4 27 12.3 27 27.4 27"/></g><g fill="#ff961a"><path d="m59.9 15.1c-1.4 0-2.5 1.1-2.5 2.5s1.1 2.5 2.5 2.5 2.5-1.1 2.5-2.5c.1-1.4-1.1-2.5-2.5-2.5zm2.3 7.4h-4.5v12.8h4.5zm-16.9-2h.8c1.9 0 3.5 0 3.5 2.4 0 2.3-1.8 2.3-3.5 2.3h-.8zm-4.8 14.9h4.9v-6.3h2.8c4.3 0 6.7-1.9 6.7-6.4 0-4.4-2.8-6.2-6.8-6.2h-7.5v18.9z"/><path d="m79.5 23.7c0-4.4-2.6-7.2-7.1-7.2-4.2 0-7.1 2.6-7.1 6.9 0 4.5 3.2 6.8 7.5 6.8 1.5 0 2.9-.3 4.1-1.1 1.2-.7 2.1-1.8 2.4-3.3h-4.4c-.5.8-1.2 1.2-2.2 1.2-1.9 0-2.9-1-2.9-2.9h9.6zm-9.6-2.2c.3-1.4 1.4-2 2.7-2 1.2 0 2.4.8 2.6 2z"/><path d="m59.9 48.8c-5.7 0-11-2.2-15-6.2l2.4-2.4c3.4 3.4 7.9 5.2 12.6 5.2s9.2-1.9 12.6-5.2l2.4 2.4c-4 3.9-9.3 6.2-15 6.2z"/></g></svg>