<svg height="134" viewBox="0 0 113 134" width="113" xmlns="http://www.w3.org/2000/svg"><path d="m109 59.48c-.03309-32.8439887-26.656002-59.4579515-59.5-59.48h-49.5v5.61l49.5.05c23.0855367-.00813956 43.6019953 14.7153798 50.984435 36.5886889 7.38244 21.8733091-.015573 46.0182154-18.384435 60.0013111l-6.1-6.06c15.9086936-11.5112996 22.5894231-31.961438 16.5447541-50.644546-6.044669-18.6831081-23.4381448-31.3443604-43.0747541-31.355454l-49.47.02v5.62h49.51c17.3664991-.0111746 32.7182142 11.2831251 37.8765242 27.8658647 5.15831 16.5827397-1.0779944 34.5923168-15.3865242 44.4341353l-6.17-6.13c11.8690236-7.3031688 17.4431619-21.6011596 13.6490712-35.0106665-3.7940907-13.4095068-16.0331466-22.667426-29.9690712-22.6693335h-49.43l55.92 55.82c-2.1063476.5466834-4.2738663.8222439-6.45.82h-49.55v5.65h49.51c3.7574567.0041795 7.4844917-.6734632 11-2l6.46 6.45c-5.4204275 2.6490265-11.3769189 4.0175484-17.41 4h-49.56v5.68h49.51c7.5540709.010384 14.9892053-1.88107 21.62-5.5l6.22 6.22c-8.3934339 5.100033-18.0285983 7.791652-27.85 7.78h-49.5v5.63h49.5c11.340513.021904 22.4482814-3.216704 32-9.33l17.8 17.9h-99.3v5.69h113l-26.86-26.84c14.421757-11.2505853 22.854885-28.518944 22.86-46.81zm-95.23-25.48h35.74c11.641601.0181455 21.7916887 7.9213483 24.6628705 19.2033481 2.8711817 11.2819997-2.2661859 23.0757417-12.4828705 28.6566519z" fill="#fff"/></svg>