<svg enable-background="new 0 0 121 56" viewBox="0 0 121 56" xmlns="http://www.w3.org/2000/svg"><g fill="#fff"><path d="m59.9 25.7h2.9c.7 0 1.3-.2 1.6-.6.4-.4.5-.8.5-1.4 0-.7-.2-1.1-.6-1.4-.3-.3-.8-.4-1.4-.4h-3zm-1.9-5.6h5c1.1 0 1.9.3 2.6.8.8.6 1.2 1.5 1.3 2.7 0 1.7-.8 2.9-2.5 3.5l3 5.7h-2.4l-2.6-5.5h-2.5v5.5h-1.9z"/><path d="m72.5 20.1h8.2v1.9h-6.3v3.6h5.4v1.7h-5.4v3.8h6.3v1.8h-8.2z"/><path d="m86.1 20.1h1.9v11h6.3v1.8h-8.2z"/><path d="m105.7 28.3-1.8-5.6-1.8 5.6zm.5 1.8h-4.8l-1 2.9h-2.1l4.6-12.8h1.6l4.6 12.8h-2z"/><path d="m115.1 27.7-3.8-7.6h2l2.7 5.7 2.7-5.7h2.1l-3.9 7.6v5.2h-1.8z"/><path d="m22.7 15.4c5 0 9.1 4 9.1 9 0 4.2-3 7.8-6.9 8.7l-18.1-17.7zm14 29.3c6.6-4.4 10.9-11.8 10.9-20.2-.1-13.5-11.2-24.5-24.9-24.5h-22.2v2.6h22.2c12.2 0 22.2 9.8 22.2 21.9 0 7.7-4.1 14.5-10.2 18.4l-2.8-2.9c5.4-3.1 9.1-8.9 9.1-15.6 0-9.9-8.2-18-18.3-18h-22.2v2.6h22.2c8.6 0 15.7 6.9 15.7 15.4 0 5.9-3.4 11.1-8.4 13.7l-3-2.9c4.4-1.7 7.5-5.9 7.5-10.8 0-6.4-5.3-11.6-11.7-11.6h-22.3l21 20.6h-21v2.6h22.2c.5 0 .9 0 1.3-.1l3.3 3.2c-1.5.5-3 .7-4.6.7h-22.2v2.6h22.2c2.4 0 4.6-.4 6.7-1.3l3 2.9c-2.9 1.4-6.2 2.2-9.7 2.2h-22.2v2.6h22.2c4.2 0 8.2-1 11.6-2.9l6.9 6.7h-40.7v2.6h47z"/><path d="m22.7 15.4c5 0 9.1 4 9.1 9 0 4.2-3 7.8-6.9 8.7l-18.1-17.7zm14 29.3c6.6-4.4 10.9-11.8 10.9-20.2-.1-13.5-11.2-24.5-24.9-24.5h-22.2v2.6h22.2c12.2 0 22.2 9.8 22.2 21.9 0 7.7-4.1 14.5-10.2 18.4l-2.8-2.9c5.4-3.1 9.1-8.9 9.1-15.6 0-9.9-8.2-18-18.3-18h-22.2v2.6h22.2c8.6 0 15.7 6.9 15.7 15.4 0 5.9-3.4 11.1-8.4 13.7l-3-2.9c4.4-1.7 7.5-5.9 7.5-10.8 0-6.4-5.3-11.6-11.7-11.6h-22.3l21 20.6h-21v2.6h22.2c.5 0 .9 0 1.3-.1l3.3 3.2c-1.5.5-3 .7-4.6.7h-22.2v2.6h22.2c2.4 0 4.6-.4 6.7-1.3l3 2.9c-2.9 1.4-6.2 2.2-9.7 2.2h-22.2v2.6h22.2c4.2 0 8.2-1 11.6-2.9l6.9 6.7h-40.7v2.6h47z"/></g></svg>