<svg enable-background="new 0 0 142.2 35.1" viewBox="0 0 142.2 35.1" xmlns="http://www.w3.org/2000/svg"><path d="m11 27.5s.1 0 .1.1v.1l-.7 1.4c-.1.1-.3.2-.3.2-.9.4-2.4 1.2-3.8 1.8-.7.3-1.4.7-2 1l-.3.2v-.1s0 0 0-.1v-.2c.1-.3.4-1.1.7-1.6 0-.1.1-.2.1-.3 0 0 .1-.1.2-.2 1.9-.9 4.2-1.7 5.7-2.2zm-5.6-2.1s-.6 1.2-.9 1.7c-1.2 2.5-2.3 5.1-3.2 7.7v.2c-.1 0-.1.1-.2.1h-1-.1s0 0 0-.1c0 0 1.5-6.3 3.1-11-.7-2.7-1.1-6.2-1.1-6.2s0-.3-.1-.4c1.9-2.7 3.8-5.3 5.9-7.8.1 0 .2-.2.5-.3 2.8-.8 5.7-1.3 8.5-1.7h.2c0-.1.1 0 .1.1.1 0 .1.1 0 .1l-.1.2c-4.2 4.9-7.9 10.3-11 16.1-.1.2-.5 1.1-.6 1.3zm13.1-16.4c0 2.8.5 8.4.5 8.4s0 .1-.1.3c0 0-2.9 4.7-4.1 7.1-.1.1-.3.2-.4.3-2.8.8-5.7 1.8-8.5 3h-.1c-.1 0-.1 0-.1 0 0-.1 0-.1 0-.2l.1-.1c3.2-6.8 7.3-13.2 12.3-18.9l.1-.2h.2s.1.1.1.1zm6.4-8c.8.7 1.7 3.5 1.1 7.1-.1.2-.1.4-.3.6-1.9 2.1-3.6 4.4-5.3 6.7l-.1.1c0 .1 0 .1-.1.1s-.1 0-.1 0-.1-.1-.1-.1v-.2c-.2-2.8-.3-5.7-.3-8.6 0-.2 0-.3-.2-.5-.1-.1-.3-.1-.5-.1-2.9.3-5.8.8-8.8 1.4h-.2c-.1 0-.1 0-.2-.1 0-.1 0-.1 0-.1l.2-.1c1.8-2 3.7-4 5.7-5.8.3-.2.5-.4.8-.5 1.9-.6 3.7-.9 5-.9 1.6.1 2.7.4 3.4 1zm20.9 14.5-1.5 1.5c-.7-.7-1.3-1-2.3-1-2 0-3.2 1.5-3.2 3.6v8.2h-2v-13.4h2v1.6c.7-1.1 2.2-1.8 3.7-1.8 1.3.1 2.3.4 3.3 1.3zm8.5 5.6c0-1.5-.1-3.2-1.1-4.1-.6-.6-1.5-1-2.5-1-.9 0-1.8.4-2.4 1-1 1-1.1 2.6-1.1 4.1s.1 3.1 1.1 4.1c.6.6 1.5 1 2.4 1 1 0 1.8-.4 2.5-1 1-.9 1.1-2.6 1.1-4.1zm2 0c0 2.1-.3 3.9-1.6 5.3-.9.9-2.2 1.5-3.8 1.5s-2.9-.6-3.8-1.5c-1.4-1.4-1.6-3.3-1.6-5.3 0-2.1.3-3.9 1.6-5.3.9-.9 2.2-1.5 3.8-1.5s2.9.6 3.8 1.5c1.3 1.4 1.6 3.3 1.6 5.3zm11.5 0c0-2.6-.4-5.1-3.3-5.1s-3.4 2.5-3.4 5.1.5 5.1 3.4 5.1 3.3-2.5 3.3-5.1zm1.9 0c0 2.1-.3 4.3-1.6 5.7-.7.7-1.9 1.2-3.3 1.2-1.5 0-2.7-.4-3.8-1.8v1.6h-2v-19.3h2v7.5c1.1-1.4 2.3-1.7 3.8-1.7 1.4 0 2.6.5 3.3 1.2 1.4 1.3 1.6 3.5 1.6 5.6zm5-10.5h-2.2v-2.2h2.2zm-.1 17.2h-2v-13.4h2zm14.1 0h-2v-8.2c0-2.4-1.3-3.6-3.3-3.6s-3.3 1.2-3.3 3.6v8.2h-2v-13.4h2v1.5c1-1.1 2.3-1.6 3.7-1.6s2.6.4 3.4 1.2c1 .9 1.4 2.2 1.4 3.7v8.6zm13.9 0h-2v-8.3c0-2.3-1.3-3.5-3.3-3.5s-3.3 1.2-3.3 3.5v8.3h-2v-19.3h2v7.4c1-1.1 2.3-1.6 3.7-1.6 3 0 4.8 1.9 4.8 4.9v8.6zm11.7-6.7c0-1.5-.1-3.2-1.1-4.1-.6-.6-1.5-1-2.5-1-.9 0-1.8.4-2.4 1-1 1-1.1 2.6-1.1 4.1s.1 3.1 1.1 4.1c.6.6 1.5 1 2.4 1s1.8-.4 2.5-1c1-.9 1.1-2.6 1.1-4.1zm2 0c0 2.1-.3 3.9-1.6 5.3-.9.9-2.2 1.5-3.8 1.5s-2.9-.6-3.8-1.5c-1.3-1.4-1.6-3.3-1.6-5.3 0-2.1.3-3.9 1.6-5.3.9-.9 2.2-1.5 3.8-1.5s2.9.6 3.8 1.5c1.3 1.4 1.6 3.3 1.6 5.3zm11.1 0c0-1.5-.1-3.2-1.1-4.1-.6-.6-1.5-1-2.4-1-1 0-1.8.4-2.4 1-1 1-1.1 2.6-1.1 4.1s.1 3.1 1.1 4.1c.6.6 1.5 1 2.4 1 1 0 1.8-.4 2.4-1 1-.9 1.1-2.6 1.1-4.1zm2 0c0 2.1-.3 3.9-1.6 5.3-.9.9-2.2 1.5-3.8 1.5s-2.9-.6-3.8-1.5c-1.4-1.4-1.6-3.3-1.6-5.3 0-2.1.3-3.9 1.6-5.3.9-.9 2.2-1.5 3.8-1.5s2.9.6 3.8 1.5c1.3 1.4 1.6 3.3 1.6 5.3zm10.8 0c0-2.6-.4-5.1-3.3-5.1s-3.4 2.5-3.4 5.1.5 5.1 3.4 5.1 3.3-2.5 3.3-5.1zm2 6.7h-1.9v-1.6c-1.1 1.4-2.3 1.8-3.8 1.8-1.4 0-2.6-.5-3.3-1.2-1.4-1.4-1.6-3.6-1.6-5.7s.3-4.3 1.6-5.7c.7-.7 1.9-1.2 3.3-1.2 1.5 0 2.7.3 3.8 1.7v-7.4h2v19.3z" fill="#fff"/></svg>