<svg enable-background="new 0 0 154 29" viewBox="0 0 154 29" xmlns="http://www.w3.org/2000/svg"><path clip-rule="evenodd" d="m48.9 22.6-2-7.8-2 7.8h-2.6l-3.2-11.4h2.7l2 8.3 2.2-8.3h1.9l2.1 8.3 2-8.3h2.7l-3.2 11.4zm17.9-5.7c0-2.1-1.3-3.8-3.4-3.8s-3.4 1.6-3.4 3.8c0 2.1 1.3 3.8 3.4 3.8 2-.1 3.4-1.7 3.4-3.8zm-9.4 0c0-3.4 2.5-5.9 5.9-5.9s5.9 2.5 5.9 5.9-2.5 5.9-5.9 5.9-5.9-2.5-5.9-5.9zm22.7-2.1c0-.9-.7-1.5-1.7-1.5h-2.5v3.1h2.5c1 0 1.7-.6 1.7-1.6zm-.2 7.8-2.2-4.1h-1.8v4.1h-2.4v-11.5h5.3c2.4 0 3.8 1.6 3.8 3.7 0 2-1.3 3.1-2.5 3.4l2.6 4.4zm13.7 0-3.4-4.6-.9 1v3.5h-2.4v-11.4h2.4v5.1l4-5.1h3l-4.5 5.4 4.8 6.1zm13.3-7.8c0-.9-.7-1.5-1.7-1.5h-2.5v3.1h2.5c.9 0 1.7-.6 1.7-1.6zm-.3 7.8-2.2-4.1h-1.8v4.1h-2.4v-11.5h5.3c2.4 0 3.8 1.6 3.8 3.7 0 2-1.3 3.1-2.5 3.4l2.6 4.4zm11.7-9-1.8 4.9h3.5zm3.2 9-.7-1.9h-4.8l-.7 1.9h-2.7l4.4-11.4h3l4.4 11.4zm16.1 0v-8.2l-3.2 8.2h-1l-3.2-8.2v8.2h-2.4v-11.5h3.4l2.7 7.1 2.7-7.1h3.4v11.4zm13.8-7.8c0-1-.7-1.5-1.7-1.5h-2.5v3.1h2.5c1-.1 1.7-.6 1.7-1.6zm-6.6 7.8v-11.5h5.3c2.5 0 3.8 1.7 3.8 3.7s-1.4 3.7-3.8 3.7h-2.9v4.1zm-130.4-7.9 13.2 13.3v-13.3zm-.1-.6h13.3v-13.4zm-.3 14.4h13.2l-13.2-13.3zm-14 0h13.3v-13.4z" fill="#fff" fill-rule="evenodd"/></svg>